<svg width="255" height="51" viewBox="0 0 255 51" fill="none" xmlns="http://www.w3.org/2000/svg">
<path d="M54.375 45H53.01L47.52 36.675V45H46.155V34.53H47.52L53.01 42.84V34.53H54.375V45ZM64.2019 40.575C64.2019 40.835 64.1869 41.11 64.1569 41.4H57.5869C57.6369 42.21 57.9119 42.845 58.4119 43.305C58.9219 43.755 59.5369 43.98 60.2569 43.98C60.8469 43.98 61.3369 43.845 61.7269 43.575C62.1269 43.295 62.4069 42.925 62.5669 42.465H64.0369C63.8169 43.255 63.3769 43.9 62.7169 44.4C62.0569 44.89 61.2369 45.135 60.2569 45.135C59.4769 45.135 58.7769 44.96 58.1569 44.61C57.5469 44.26 57.0669 43.765 56.7169 43.125C56.3669 42.475 56.1919 41.725 56.1919 40.875C56.1919 40.025 56.3619 39.28 56.7019 38.64C57.0419 38 57.5169 37.51 58.1269 37.17C58.7469 36.82 59.4569 36.645 60.2569 36.645C61.0369 36.645 61.7269 36.815 62.3269 37.155C62.9269 37.495 63.3869 37.965 63.7069 38.565C64.0369 39.155 64.2019 39.825 64.2019 40.575ZM62.7919 40.29C62.7919 39.77 62.6769 39.325 62.4469 38.955C62.2169 38.575 61.9019 38.29 61.5019 38.1C61.1119 37.9 60.6769 37.8 60.1969 37.8C59.5069 37.8 58.9169 38.02 58.4269 38.46C57.9469 38.9 57.6719 39.51 57.6019 40.29H62.7919ZM76.9536 36.78L74.3886 45H72.9786L70.9986 38.475L69.0186 45H67.6086L65.0286 36.78H66.4236L68.3136 43.68L70.3536 36.78H71.7486L73.7436 43.695L75.6036 36.78H76.9536ZM79.9733 37.905V42.75C79.9733 43.15 80.0583 43.435 80.2283 43.605C80.3983 43.765 80.6933 43.845 81.1133 43.845H82.1183V45H80.8883C80.1283 45 79.5583 44.825 79.1783 44.475C78.7983 44.125 78.6083 43.55 78.6083 42.75V37.905H77.5433V36.78H78.6083V34.71H79.9733V36.78H82.1183V37.905H79.9733ZM87.3572 45.135C86.5872 45.135 85.8872 44.96 85.2572 44.61C84.6372 44.26 84.1472 43.765 83.7872 43.125C83.4372 42.475 83.2622 41.725 83.2622 40.875C83.2622 40.035 83.4422 39.295 83.8022 38.655C84.1722 38.005 84.6722 37.51 85.3022 37.17C85.9322 36.82 86.6372 36.645 87.4172 36.645C88.1972 36.645 88.9022 36.82 89.5322 37.17C90.1622 37.51 90.6572 38 91.0172 38.64C91.3872 39.28 91.5722 40.025 91.5722 40.875C91.5722 41.725 91.3822 42.475 91.0022 43.125C90.6322 43.765 90.1272 44.26 89.4872 44.61C88.8472 44.96 88.1372 45.135 87.3572 45.135ZM87.3572 43.935C87.8472 43.935 88.3072 43.82 88.7372 43.59C89.1672 43.36 89.5122 43.015 89.7722 42.555C90.0422 42.095 90.1772 41.535 90.1772 40.875C90.1772 40.215 90.0472 39.655 89.7872 39.195C89.5272 38.735 89.1872 38.395 88.7672 38.175C88.3472 37.945 87.8922 37.83 87.4022 37.83C86.9022 37.83 86.4422 37.945 86.0222 38.175C85.6122 38.395 85.2822 38.735 85.0322 39.195C84.7822 39.655 84.6572 40.215 84.6572 40.875C84.6572 41.545 84.7772 42.11 85.0172 42.57C85.2672 43.03 85.5972 43.375 86.0072 43.605C86.4172 43.825 86.8672 43.935 87.3572 43.935ZM97.3719 36.63C98.3719 36.63 99.1819 36.935 99.8019 37.545C100.422 38.145 100.732 39.015 100.732 40.155V45H99.3819V40.35C99.3819 39.53 99.1769 38.905 98.7669 38.475C98.3569 38.035 97.7969 37.815 97.0869 37.815C96.3669 37.815 95.7919 38.04 95.3619 38.49C94.9419 38.94 94.7319 39.595 94.7319 40.455V45H93.3669V36.78H94.7319V37.95C95.0019 37.53 95.3669 37.205 95.8269 36.975C96.2969 36.745 96.8119 36.63 97.3719 36.63ZM110.276 45.105C109.586 45.105 108.966 44.985 108.416 44.745C107.876 44.495 107.451 44.155 107.141 43.725C106.831 43.285 106.671 42.78 106.661 42.21H108.116C108.166 42.7 108.366 43.115 108.716 43.455C109.076 43.785 109.596 43.95 110.276 43.95C110.926 43.95 111.436 43.79 111.806 43.47C112.186 43.14 112.376 42.72 112.376 42.21C112.376 41.81 112.266 41.485 112.046 41.235C111.826 40.985 111.551 40.795 111.221 40.665C110.891 40.535 110.446 40.395 109.886 40.245C109.196 40.065 108.641 39.885 108.221 39.705C107.811 39.525 107.456 39.245 107.156 38.865C106.866 38.475 106.721 37.955 106.721 37.305C106.721 36.735 106.866 36.23 107.156 35.79C107.446 35.35 107.851 35.01 108.371 34.77C108.901 34.53 109.506 34.41 110.186 34.41C111.166 34.41 111.966 34.655 112.586 35.145C113.216 35.635 113.571 36.285 113.651 37.095H112.151C112.101 36.695 111.891 36.345 111.521 36.045C111.151 35.735 110.661 35.58 110.051 35.58C109.481 35.58 109.016 35.73 108.656 36.03C108.296 36.32 108.116 36.73 108.116 37.26C108.116 37.64 108.221 37.95 108.431 38.19C108.651 38.43 108.916 38.615 109.226 38.745C109.546 38.865 109.991 39.005 110.561 39.165C111.251 39.355 111.806 39.545 112.226 39.735C112.646 39.915 113.006 40.2 113.306 40.59C113.606 40.97 113.756 41.49 113.756 42.15C113.756 42.66 113.621 43.14 113.351 43.59C113.081 44.04 112.681 44.405 112.151 44.685C111.621 44.965 110.996 45.105 110.276 45.105ZM115.254 40.875C115.254 40.025 115.424 39.285 115.764 38.655C116.104 38.015 116.574 37.52 117.174 37.17C117.784 36.82 118.479 36.645 119.259 36.645C120.269 36.645 121.099 36.89 121.749 37.38C122.409 37.87 122.844 38.55 123.054 39.42H121.584C121.444 38.92 121.169 38.525 120.759 38.235C120.359 37.945 119.859 37.8 119.259 37.8C118.479 37.8 117.849 38.07 117.369 38.61C116.889 39.14 116.649 39.895 116.649 40.875C116.649 41.865 116.889 42.63 117.369 43.17C117.849 43.71 118.479 43.98 119.259 43.98C119.859 43.98 120.359 43.84 120.759 43.56C121.159 43.28 121.434 42.88 121.584 42.36H123.054C122.834 43.2 122.394 43.875 121.734 44.385C121.074 44.885 120.249 45.135 119.259 45.135C118.479 45.135 117.784 44.96 117.174 44.61C116.574 44.26 116.104 43.765 115.764 43.125C115.424 42.485 115.254 41.735 115.254 40.875ZM128.956 36.63C129.576 36.63 130.136 36.765 130.636 37.035C131.136 37.295 131.526 37.69 131.806 38.22C132.096 38.75 132.241 39.395 132.241 40.155V45H130.891V40.35C130.891 39.53 130.686 38.905 130.276 38.475C129.866 38.035 129.306 37.815 128.596 37.815C127.876 37.815 127.301 38.04 126.871 38.49C126.451 38.94 126.241 39.595 126.241 40.455V45H124.876V33.9H126.241V37.95C126.511 37.53 126.881 37.205 127.351 36.975C127.831 36.745 128.366 36.63 128.956 36.63ZM138.055 45.135C137.285 45.135 136.585 44.96 135.955 44.61C135.335 44.26 134.845 43.765 134.485 43.125C134.135 42.475 133.96 41.725 133.96 40.875C133.96 40.035 134.14 39.295 134.5 38.655C134.87 38.005 135.37 37.51 136 37.17C136.63 36.82 137.335 36.645 138.115 36.645C138.895 36.645 139.6 36.82 140.23 37.17C140.86 37.51 141.355 38 141.715 38.64C142.085 39.28 142.27 40.025 142.27 40.875C142.27 41.725 142.08 42.475 141.7 43.125C141.33 43.765 140.825 44.26 140.185 44.61C139.545 44.96 138.835 45.135 138.055 45.135ZM138.055 43.935C138.545 43.935 139.005 43.82 139.435 43.59C139.865 43.36 140.21 43.015 140.47 42.555C140.74 42.095 140.875 41.535 140.875 40.875C140.875 40.215 140.745 39.655 140.485 39.195C140.225 38.735 139.885 38.395 139.465 38.175C139.045 37.945 138.59 37.83 138.1 37.83C137.6 37.83 137.14 37.945 136.72 38.175C136.31 38.395 135.98 38.735 135.73 39.195C135.48 39.655 135.355 40.215 135.355 40.875C135.355 41.545 135.475 42.11 135.715 42.57C135.965 43.03 136.295 43.375 136.705 43.605C137.115 43.825 137.565 43.935 138.055 43.935ZM147.65 45.135C146.88 45.135 146.18 44.96 145.55 44.61C144.93 44.26 144.44 43.765 144.08 43.125C143.73 42.475 143.555 41.725 143.555 40.875C143.555 40.035 143.735 39.295 144.095 38.655C144.465 38.005 144.965 37.51 145.595 37.17C146.225 36.82 146.93 36.645 147.71 36.645C148.49 36.645 149.195 36.82 149.825 37.17C150.455 37.51 150.95 38 151.31 38.64C151.68 39.28 151.865 40.025 151.865 40.875C151.865 41.725 151.675 42.475 151.295 43.125C150.925 43.765 150.42 44.26 149.78 44.61C149.14 44.96 148.43 45.135 147.65 45.135ZM147.65 43.935C148.14 43.935 148.6 43.82 149.03 43.59C149.46 43.36 149.805 43.015 150.065 42.555C150.335 42.095 150.47 41.535 150.47 40.875C150.47 40.215 150.34 39.655 150.08 39.195C149.82 38.735 149.48 38.395 149.06 38.175C148.64 37.945 148.185 37.83 147.695 37.83C147.195 37.83 146.735 37.945 146.315 38.175C145.905 38.395 145.575 38.735 145.325 39.195C145.075 39.655 144.95 40.215 144.95 40.875C144.95 41.545 145.07 42.11 145.31 42.57C145.56 43.03 145.89 43.375 146.3 43.605C146.71 43.825 147.16 43.935 147.65 43.935ZM155.025 33.9V45H153.66V33.9H155.025ZM160.84 39.765C160.84 38.745 161.07 37.83 161.53 37.02C161.99 36.2 162.615 35.56 163.405 35.1C164.205 34.64 165.09 34.41 166.06 34.41C167.2 34.41 168.195 34.685 169.045 35.235C169.895 35.785 170.515 36.565 170.905 37.575H169.27C168.98 36.945 168.56 36.46 168.01 36.12C167.47 35.78 166.82 35.61 166.06 35.61C165.33 35.61 164.675 35.78 164.095 36.12C163.515 36.46 163.06 36.945 162.73 37.575C162.4 38.195 162.235 38.925 162.235 39.765C162.235 40.595 162.4 41.325 162.73 41.955C163.06 42.575 163.515 43.055 164.095 43.395C164.675 43.735 165.33 43.905 166.06 43.905C166.82 43.905 167.47 43.74 168.01 43.41C168.56 43.07 168.98 42.585 169.27 41.955H170.905C170.515 42.955 169.895 43.73 169.045 44.28C168.195 44.82 167.2 45.09 166.06 45.09C165.09 45.09 164.205 44.865 163.405 44.415C162.615 43.955 161.99 43.32 161.53 42.51C161.07 41.7 160.84 40.785 160.84 39.765ZM176.522 45.135C175.752 45.135 175.052 44.96 174.422 44.61C173.802 44.26 173.312 43.765 172.952 43.125C172.602 42.475 172.427 41.725 172.427 40.875C172.427 40.035 172.607 39.295 172.967 38.655C173.337 38.005 173.837 37.51 174.467 37.17C175.097 36.82 175.802 36.645 176.582 36.645C177.362 36.645 178.067 36.82 178.697 37.17C179.327 37.51 179.822 38 180.182 38.64C180.552 39.28 180.737 40.025 180.737 40.875C180.737 41.725 180.547 42.475 180.167 43.125C179.797 43.765 179.292 44.26 178.652 44.61C178.012 44.96 177.302 45.135 176.522 45.135ZM176.522 43.935C177.012 43.935 177.472 43.82 177.902 43.59C178.332 43.36 178.677 43.015 178.937 42.555C179.207 42.095 179.342 41.535 179.342 40.875C179.342 40.215 179.212 39.655 178.952 39.195C178.692 38.735 178.352 38.395 177.932 38.175C177.512 37.945 177.057 37.83 176.567 37.83C176.067 37.83 175.607 37.945 175.187 38.175C174.777 38.395 174.447 38.735 174.197 39.195C173.947 39.655 173.822 40.215 173.822 40.875C173.822 41.545 173.942 42.11 174.182 42.57C174.432 43.03 174.762 43.375 175.172 43.605C175.582 43.825 176.032 43.935 176.522 43.935ZM182.022 40.86C182.022 40.02 182.192 39.285 182.532 38.655C182.872 38.015 183.337 37.52 183.927 37.17C184.527 36.82 185.197 36.645 185.937 36.645C186.577 36.645 187.172 36.795 187.722 37.095C188.272 37.385 188.692 37.77 188.982 38.25V33.9H190.362V45H188.982V43.455C188.712 43.945 188.312 44.35 187.782 44.67C187.252 44.98 186.632 45.135 185.922 45.135C185.192 45.135 184.527 44.955 183.927 44.595C183.337 44.235 182.872 43.73 182.532 43.08C182.192 42.43 182.022 41.69 182.022 40.86ZM188.982 40.875C188.982 40.255 188.857 39.715 188.607 39.255C188.357 38.795 188.017 38.445 187.587 38.205C187.167 37.955 186.702 37.83 186.192 37.83C185.682 37.83 185.217 37.95 184.797 38.19C184.377 38.43 184.042 38.78 183.792 39.24C183.542 39.7 183.417 40.24 183.417 40.86C183.417 41.49 183.542 42.04 183.792 42.51C184.042 42.97 184.377 43.325 184.797 43.575C185.217 43.815 185.682 43.935 186.192 43.935C186.702 43.935 187.167 43.815 187.587 43.575C188.017 43.325 188.357 42.97 188.607 42.51C188.857 42.04 188.982 41.495 188.982 40.875ZM193.374 35.445C193.114 35.445 192.894 35.355 192.714 35.175C192.534 34.995 192.444 34.775 192.444 34.515C192.444 34.255 192.534 34.035 192.714 33.855C192.894 33.675 193.114 33.585 193.374 33.585C193.624 33.585 193.834 33.675 194.004 33.855C194.184 34.035 194.274 34.255 194.274 34.515C194.274 34.775 194.184 34.995 194.004 35.175C193.834 35.355 193.624 35.445 193.374 35.445ZM194.034 36.78V45H192.669V36.78H194.034ZM200.365 36.63C201.365 36.63 202.175 36.935 202.795 37.545C203.415 38.145 203.725 39.015 203.725 40.155V45H202.375V40.35C202.375 39.53 202.17 38.905 201.76 38.475C201.35 38.035 200.79 37.815 200.08 37.815C199.36 37.815 198.785 38.04 198.355 38.49C197.935 38.94 197.725 39.595 197.725 40.455V45H196.36V36.78H197.725V37.95C197.995 37.53 198.36 37.205 198.82 36.975C199.29 36.745 199.805 36.63 200.365 36.63ZM209.345 36.645C210.055 36.645 210.675 36.8 211.205 37.11C211.745 37.42 212.145 37.81 212.405 38.28V36.78H213.785V45.18C213.785 45.93 213.625 46.595 213.305 47.175C212.985 47.765 212.525 48.225 211.925 48.555C211.335 48.885 210.645 49.05 209.855 49.05C208.775 49.05 207.875 48.795 207.155 48.285C206.435 47.775 206.01 47.08 205.88 46.2H207.23C207.38 46.7 207.69 47.1 208.16 47.4C208.63 47.71 209.195 47.865 209.855 47.865C210.605 47.865 211.215 47.63 211.685 47.16C212.165 46.69 212.405 46.03 212.405 45.18V43.455C212.135 43.935 211.735 44.335 211.205 44.655C210.675 44.975 210.055 45.135 209.345 45.135C208.615 45.135 207.95 44.955 207.35 44.595C206.76 44.235 206.295 43.73 205.955 43.08C205.615 42.43 205.445 41.69 205.445 40.86C205.445 40.02 205.615 39.285 205.955 38.655C206.295 38.015 206.76 37.52 207.35 37.17C207.95 36.82 208.615 36.645 209.345 36.645ZM212.405 40.875C212.405 40.255 212.28 39.715 212.03 39.255C211.78 38.795 211.44 38.445 211.01 38.205C210.59 37.955 210.125 37.83 209.615 37.83C209.105 37.83 208.64 37.95 208.22 38.19C207.8 38.43 207.465 38.78 207.215 39.24C206.965 39.7 206.84 40.24 206.84 40.86C206.84 41.49 206.965 42.04 207.215 42.51C207.465 42.97 207.8 43.325 208.22 43.575C208.64 43.815 209.105 43.935 209.615 43.935C210.125 43.935 210.59 43.815 211.01 43.575C211.44 43.325 211.78 42.97 212.03 42.51C212.28 42.04 212.405 41.495 212.405 40.875ZM219.581 39.765C219.581 38.745 219.811 37.83 220.271 37.02C220.731 36.2 221.356 35.56 222.146 35.1C222.946 34.64 223.831 34.41 224.801 34.41C225.941 34.41 226.936 34.685 227.786 35.235C228.636 35.785 229.256 36.565 229.646 37.575H228.011C227.721 36.945 227.301 36.46 226.751 36.12C226.211 35.78 225.561 35.61 224.801 35.61C224.071 35.61 223.416 35.78 222.836 36.12C222.256 36.46 221.801 36.945 221.471 37.575C221.141 38.195 220.976 38.925 220.976 39.765C220.976 40.595 221.141 41.325 221.471 41.955C221.801 42.575 222.256 43.055 222.836 43.395C223.416 43.735 224.071 43.905 224.801 43.905C225.561 43.905 226.211 43.74 226.751 43.41C227.301 43.07 227.721 42.585 228.011 41.955H229.646C229.256 42.955 228.636 43.73 227.786 44.28C226.936 44.82 225.941 45.09 224.801 45.09C223.831 45.09 222.946 44.865 222.146 44.415C221.356 43.955 220.731 43.32 220.271 42.51C219.811 41.7 219.581 40.785 219.581 39.765ZM233.042 33.9V45H231.677V33.9H233.042ZM242.659 36.78V45H241.294V43.785C241.034 44.205 240.669 44.535 240.199 44.775C239.739 45.005 239.229 45.12 238.669 45.12C238.029 45.12 237.454 44.99 236.944 44.73C236.434 44.46 236.029 44.06 235.729 43.53C235.439 43 235.294 42.355 235.294 41.595V36.78H236.644V41.415C236.644 42.225 236.849 42.85 237.259 43.29C237.669 43.72 238.229 43.935 238.939 43.935C239.669 43.935 240.244 43.71 240.664 43.26C241.084 42.81 241.294 42.155 241.294 41.295V36.78H242.659ZM246.329 38.31C246.609 37.82 247.019 37.42 247.559 37.11C248.099 36.8 248.714 36.645 249.404 36.645C250.144 36.645 250.809 36.82 251.399 37.17C251.989 37.52 252.454 38.015 252.794 38.655C253.134 39.285 253.304 40.02 253.304 40.86C253.304 41.69 253.134 42.43 252.794 43.08C252.454 43.73 251.984 44.235 251.384 44.595C250.794 44.955 250.134 45.135 249.404 45.135C248.694 45.135 248.069 44.98 247.529 44.67C246.999 44.36 246.599 43.965 246.329 43.485V45H244.964V33.9H246.329V38.31ZM251.909 40.86C251.909 40.24 251.784 39.7 251.534 39.24C251.284 38.78 250.944 38.43 250.514 38.19C250.094 37.95 249.629 37.83 249.119 37.83C248.619 37.83 248.154 37.955 247.724 38.205C247.304 38.445 246.964 38.8 246.704 39.27C246.454 39.73 246.329 40.265 246.329 40.875C246.329 41.495 246.454 42.04 246.704 42.51C246.964 42.97 247.304 43.325 247.724 43.575C248.154 43.815 248.619 43.935 249.119 43.935C249.629 43.935 250.094 43.815 250.514 43.575C250.944 43.325 251.284 42.97 251.534 42.51C251.784 42.04 251.909 41.49 251.909 40.86Z" fill="#E6E6E6"/>
<path d="M64.672 28H61.024L50.048 11.392V28H46.4V5.728H50.048L61.024 22.304V5.728H64.672V28ZM76.7905 28.224C75.2972 28.224 73.9532 27.968 72.7585 27.456C71.5638 26.9227 70.6252 26.176 69.9425 25.216C69.2598 24.256 68.9185 23.136 68.9185 21.856H72.8225C72.9078 22.816 73.2812 23.6053 73.9425 24.224C74.6252 24.8427 75.5745 25.152 76.7905 25.152C78.0492 25.152 79.0305 24.8533 79.7345 24.256C80.4385 23.6373 80.7905 22.848 80.7905 21.888C80.7905 21.1413 80.5665 20.5333 80.1185 20.064C79.6918 19.5947 79.1478 19.232 78.4865 18.976C77.8465 18.72 76.9505 18.4427 75.7985 18.144C74.3478 17.76 73.1638 17.376 72.2465 16.992C71.3505 16.5867 70.5825 15.968 69.9425 15.136C69.3025 14.304 68.9825 13.1947 68.9825 11.808C68.9825 10.528 69.3025 9.408 69.9425 8.448C70.5825 7.488 71.4785 6.752 72.6305 6.24C73.7825 5.728 75.1158 5.472 76.6305 5.472C78.7852 5.472 80.5452 6.016 81.9105 7.104C83.2972 8.17067 84.0652 9.64267 84.2145 11.52H80.1825C80.1185 10.7093 79.7345 10.016 79.0305 9.44C78.3265 8.864 77.3985 8.576 76.2465 8.576C75.2012 8.576 74.3478 8.84267 73.6865 9.376C73.0252 9.90933 72.6945 10.6773 72.6945 11.68C72.6945 12.3627 72.8972 12.928 73.3025 13.376C73.7292 13.8027 74.2625 14.144 74.9025 14.4C75.5425 14.656 76.4172 14.9333 77.5265 15.232C78.9985 15.6373 80.1932 16.0427 81.1105 16.448C82.0492 16.8533 82.8385 17.4827 83.4785 18.336C84.1398 19.168 84.4705 20.288 84.4705 21.696C84.4705 22.8267 84.1612 23.8933 83.5425 24.896C82.9452 25.8987 82.0598 26.7093 80.8865 27.328C79.7345 27.9253 78.3692 28.224 76.7905 28.224ZM87.559 16.832C87.559 14.656 88.0603 12.704 89.063 10.976C90.087 9.248 91.463 7.904 93.191 6.944C94.9403 5.96266 96.8497 5.472 98.919 5.472C101.287 5.472 103.388 6.05866 105.223 7.232C107.079 8.384 108.423 10.0267 109.255 12.16H104.871C104.295 10.9867 103.495 10.112 102.471 9.536C101.447 8.96 100.263 8.672 98.919 8.672C97.447 8.672 96.135 9.00267 94.983 9.664C93.831 10.3253 92.9243 11.2747 92.263 12.512C91.623 13.7493 91.303 15.1893 91.303 16.832C91.303 18.4747 91.623 19.9147 92.263 21.152C92.9243 22.3893 93.831 23.3493 94.983 24.032C96.135 24.6933 97.447 25.024 98.919 25.024C100.263 25.024 101.447 24.736 102.471 24.16C103.495 23.584 104.295 22.7093 104.871 21.536H109.255C108.423 23.6693 107.079 25.312 105.223 26.464C103.388 27.616 101.287 28.192 98.919 28.192C96.8283 28.192 94.919 27.712 93.191 26.752C91.463 25.7707 90.087 24.416 89.063 22.688C88.0603 20.96 87.559 19.008 87.559 16.832ZM112.309 16.832C112.309 14.656 112.81 12.704 113.813 10.976C114.837 9.248 116.213 7.904 117.941 6.944C119.69 5.96266 121.6 5.472 123.669 5.472C126.037 5.472 128.138 6.05866 129.973 7.232C131.829 8.384 133.173 10.0267 134.005 12.16H129.621C129.045 10.9867 128.245 10.112 127.221 9.536C126.197 8.96 125.013 8.672 123.669 8.672C122.197 8.672 120.885 9.00267 119.733 9.664C118.581 10.3253 117.674 11.2747 117.013 12.512C116.373 13.7493 116.053 15.1893 116.053 16.832C116.053 18.4747 116.373 19.9147 117.013 21.152C117.674 22.3893 118.581 23.3493 119.733 24.032C120.885 24.6933 122.197 25.024 123.669 25.024C125.013 25.024 126.197 24.736 127.221 24.16C128.245 23.584 129.045 22.7093 129.621 21.536H134.005C133.173 23.6693 131.829 25.312 129.973 26.464C128.138 27.616 126.037 28.192 123.669 28.192C121.578 28.192 119.669 27.712 117.941 26.752C116.213 25.7707 114.837 24.416 113.813 22.688C112.81 20.96 112.309 19.008 112.309 16.832ZM162.14 12.384C162.14 13.5147 161.873 14.5813 161.34 15.584C160.806 16.5867 159.953 17.408 158.78 18.048C157.606 18.6667 156.102 18.976 154.268 18.976H150.236V28H146.588V5.76H154.268C155.974 5.76 157.414 6.05866 158.588 6.656C159.782 7.232 160.668 8.02133 161.244 9.024C161.841 10.0267 162.14 11.1467 162.14 12.384ZM154.268 16C155.654 16 156.689 15.6907 157.372 15.072C158.054 14.432 158.396 13.536 158.396 12.384C158.396 9.952 157.02 8.736 154.268 8.736H150.236V16H154.268ZM164.403 16.832C164.403 14.656 164.904 12.704 165.907 10.976C166.931 9.248 168.307 7.904 170.035 6.944C171.784 5.96266 173.693 5.472 175.763 5.472C178.131 5.472 180.232 6.05866 182.067 7.232C183.923 8.384 185.267 10.0267 186.099 12.16H181.715C181.139 10.9867 180.339 10.112 179.315 9.536C178.291 8.96 177.107 8.672 175.763 8.672C174.291 8.672 172.979 9.00267 171.827 9.664C170.675 10.3253 169.768 11.2747 169.107 12.512C168.467 13.7493 168.147 15.1893 168.147 16.832C168.147 18.4747 168.467 19.9147 169.107 21.152C169.768 22.3893 170.675 23.3493 171.827 24.032C172.979 24.6933 174.291 25.024 175.763 25.024C177.107 25.024 178.291 24.736 179.315 24.16C180.339 23.584 181.139 22.7093 181.715 21.536H186.099C185.267 23.6693 183.923 25.312 182.067 26.464C180.232 27.616 178.131 28.192 175.763 28.192C173.672 28.192 171.763 27.712 170.035 26.752C168.307 25.7707 166.931 24.416 165.907 22.688C164.904 20.96 164.403 19.008 164.403 16.832ZM189.153 16.832C189.153 14.656 189.654 12.704 190.657 10.976C191.681 9.248 193.057 7.904 194.785 6.944C196.534 5.96266 198.443 5.472 200.513 5.472C202.881 5.472 204.982 6.05866 206.817 7.232C208.673 8.384 210.017 10.0267 210.849 12.16H206.465C205.889 10.9867 205.089 10.112 204.065 9.536C203.041 8.96 201.857 8.672 200.513 8.672C199.041 8.672 197.729 9.00267 196.577 9.664C195.425 10.3253 194.518 11.2747 193.857 12.512C193.217 13.7493 192.897 15.1893 192.897 16.832C192.897 18.4747 193.217 19.9147 193.857 21.152C194.518 22.3893 195.425 23.3493 196.577 24.032C197.729 24.6933 199.041 25.024 200.513 25.024C201.857 25.024 203.041 24.736 204.065 24.16C205.089 23.584 205.889 22.7093 206.465 21.536H210.849C210.017 23.6693 208.673 25.312 206.817 26.464C204.982 27.616 202.881 28.192 200.513 28.192C198.422 28.192 196.513 27.712 194.785 26.752C193.057 25.7707 191.681 24.416 190.657 22.688C189.654 20.96 189.153 19.008 189.153 16.832ZM225.263 28.224C223.193 28.224 221.284 27.744 219.535 26.784C217.807 25.8027 216.431 24.448 215.407 22.72C214.404 20.9707 213.903 19.008 213.903 16.832C213.903 14.656 214.404 12.704 215.407 10.976C216.431 9.248 217.807 7.904 219.535 6.944C221.284 5.96266 223.193 5.472 225.263 5.472C227.353 5.472 229.263 5.96266 230.991 6.944C232.74 7.904 234.116 9.248 235.119 10.976C236.121 12.704 236.623 14.656 236.623 16.832C236.623 19.008 236.121 20.9707 235.119 22.72C234.116 24.448 232.74 25.8027 230.991 26.784C229.263 27.744 227.353 28.224 225.263 28.224ZM225.263 25.056C226.735 25.056 228.047 24.7253 229.199 24.064C230.351 23.3813 231.247 22.4213 231.887 21.184C232.548 19.9253 232.879 18.4747 232.879 16.832C232.879 15.1893 232.548 13.7493 231.887 12.512C231.247 11.2747 230.351 10.3253 229.199 9.664C228.047 9.00267 226.735 8.672 225.263 8.672C223.791 8.672 222.479 9.00267 221.327 9.664C220.175 10.3253 219.268 11.2747 218.607 12.512C217.967 13.7493 217.647 15.1893 217.647 16.832C217.647 18.4747 217.967 19.9253 218.607 21.184C219.268 22.4213 220.175 23.3813 221.327 24.064C222.479 24.7253 223.791 25.056 225.263 25.056ZM243.861 8.704V15.232H251.541V18.208H243.861V25.024H252.501V28H240.213V5.728H252.501V8.704H243.861Z" fill="#E6E6E6"/>
<g clip-path="url(#clip0_644_1743)">
<path fill-rule="evenodd" clip-rule="evenodd" d="M40 6L39.9988 25.9047L40 26C40 36.9176 31.2506 45.7941 20.38 45.9965L20 46C8.95412 46 0 37.0459 0 26C0 14.9541 8.95412 6 20 6H40Z" fill="#0D77D7"/>
<path fill-rule="evenodd" clip-rule="evenodd" d="M10.14 8.53528V43.1823C4.07294 39.6953 0 33.2423 0 25.8588C0 18.4765 4.07294 12.0235 10.14 8.53528Z" fill="#0D65DE"/>
<path fill-rule="evenodd" clip-rule="evenodd" d="M19.9999 6V46C16.2999 46 12.8341 45 9.85876 43.2565V8.74353C12.8226 7.00658 16.184 6.06289 19.6188 6.00353L19.9999 6Z" fill="#3DCCC8"/>
<path fill-rule="evenodd" clip-rule="evenodd" d="M20.0353 6L36.0565 38.0765C34.1695 40.5925 31.7188 42.631 28.9012 44.0282L10.9871 8.15765C13.6762 6.79286 16.6401 6.0567 19.6553 6.00471L20.0353 6Z" fill="#73E8D4"/>
<path fill-rule="evenodd" clip-rule="evenodd" d="M40.0001 6V26.04C40.0001 33.5047 36.0295 40.0165 30.1412 43.4635V6H40.0001Z" fill="#43C4CC"/>
</g>
<defs>
<clipPath id="clip0_644_1743">
<rect width="40" height="40" fill="white" transform="translate(0 6)"/>
</clipPath>
</defs>
</svg>
